 <svg  version="1.0" xmlns="http://www.w3.org/2000/svg"  width="675.000000pt" height="675.000000pt" viewBox="0 0 675.000000 675.000000"  preserveAspectRatio="xMidYMid meet">  <g transform="translate(0.000000,675.000000) scale(0.100000,-0.100000)" fill="#d92222" stroke="none"> <path d="M2754 4891 c-23 -11 -53 -36 -68 -56 -24 -31 -28 -46 -28 -105 -1 -77 18 -119 72 -159 27 -19 44 -23 106 -23 85 0 109 11 154 74 56 76 37 187 -42 251 -48 39 -134 47 -194 18z"/> <path d="M3146 4498 c-21 -12 -51 -39 -67 -61 -25 -34 -29 -49 -29 -104 0 -44 6 -75 17 -95 l18 -29 -63 -61 c-46 -45 -67 -58 -80 -53 -9 4 -35 14 -57 22 -68 25 -143 -1 -196 -68 -28 -35 -31 -46 -31 -109 -1 -50 4 -77 17 -96 l17 -26 -58 -59 c-32 -33 -65 -59 -74 -59 -8 0 -28 7 -45 16 -43 23 -93 22 -146 -3 -82 -39 -119 -117 -100 -215 9 -49 62 -118 91 -118 9 0 21 -5 27 -11 18 -18 84 -15 126 4 21 10 45 16 55 13 10 -3 42 -30 71 -60 l53 -54 -17 -26 c-13 -19 -18 -46 -17 -97 0 -64 3 -73 35 -112 59 -72 157 -94 224 -50 31 20 51 11 113 -52 l54 -55 -17 -29 c-11 -19 -17 -51 -17 -94 0 -55 4 -70 30 -105 78 -108 223 -107 301 1 25 34 29 50 29 102 0 38 -5 68 -15 81 -8 10 -15 26 -15 35 0 14 110 129 123 129 2 0 26 -9 52 -21 80 -35 172 -3 227 80 24 35 25 157 2 190 -16 22 -15 24 37 77 64 65 78 70 121 48 36 -19 98 -22 131 -6 12 5 30 13 39 16 10 3 31 24 48 47 27 38 30 50 30 114 0 95 -30 141 -115 173 -58 23 -84 22 -134 -4 -42 -22 -53 -17 -115 45 -57 58 -58 60 -42 82 11 16 16 45 16 95 0 66 -3 76 -33 115 -54 71 -148 94 -224 54 -15 -8 -32 -15 -36 -15 -17 0 -127 113 -127 130 0 10 7 23 15 30 11 9 15 32 15 80 0 58 -4 72 -29 107 -57 78 -155 104 -235 61z m12 -338 c52 -25 87 -25 140 0 24 12 48 18 55 14 30 -18 117 -110 117 -124 0 -8 -7 -24 -15 -34 -20 -26 -19 -134 0 -160 8 -11 15 -25 15 -32 0 -16 -110 -124 -127 -124 -8 0 -35 9 -60 21 -44 20 -47 20 -92 4 -88 -31 -85 -32 -145 31 -59 60 -65 77 -41 108 9 12 15 42 15 76 0 34 -6 64 -15 76 -24 32 -17 49 44 107 33 32 61 57 63 57 3 0 23 -9 46 -20z m-372 -396 c49 -14 59 -14 110 1 30 9 63 13 72 9 9 -3 39 -30 65 -59 48 -53 48 -53 33 -84 -21 -41 -21 -144 0 -177 19 -27 19 -26 -55 -100 -50 -52 -59 -54 -109 -32 -46 21 -72 20 -150 -3 l-42 -13 -55 54 c-57 56 -65 80 -40 114 20 26 20 116 0 142 -8 10 -15 28 -15 39 0 22 97 125 118 125 8 0 38 -7 68 -16z m781 -1 c50 -16 56 -16 106 0 30 9 60 17 68 17 21 0 119 -105 119 -126 0 -11 -7 -28 -15 -38 -9 -12 -15 -41 -15 -71 0 -30 6 -59 15 -71 8 -10 15 -28 15 -39 0 -24 -98 -125 -122 -125 -10 0 -35 9 -55 20 -47 25 -76 25 -132 0 -24 -11 -47 -20 -52 -20 -14 0 -119 108 -119 122 0 7 7 22 15 32 20 26 20 136 0 162 -8 10 -15 24 -15 30 0 15 103 122 119 123 8 1 38 -7 68 -16z m-409 -389 c31 -21 99 -21 141 0 20 11 42 15 55 11 31 -10 123 -114 108 -124 -31 -19 -35 -178 -6 -202 23 -19 17 -32 -38 -85 -57 -55 -80 -68 -95 -53 -17 17 -112 22 -169 9 l-55 -13 -54 53 c-58 57 -64 73 -40 104 9 12 15 42 15 76 0 34 -6 64 -15 76 -24 32 -17 51 41 109 60 59 76 64 112 39z"/> <path d="M4366 4123 c-36 -10 -93 -51 -117 -84 -34 -48 -38 -130 -9 -184 41 -75 104 -103 207 -90 50 6 63 12 95 47 29 32 38 51 43 92 12 92 -22 159 -102 203 -26 15 -90 24 -117 16z"/> <path d="M1975 3321 c-79 -36 -115 -110 -100 -209 11 -79 96 -148 180 -146 55 1 120 37 148 82 65 103 29 226 -81 273 -54 23 -95 23 -147 0z"/> <path d="M3522 2524 c-13 -9 -37 -34 -53 -57 -25 -34 -29 -49 -29 -102 0 -53 4 -68 29 -102 43 -59 87 -83 153 -83 45 0 62 5 95 29 70 51 83 75 83 154 0 80 -20 123 -74 156 -43 27 -169 30 -204 5z"/> </g> </svg> 